<?xml version="1.0" standalone="no"?>
<!DOCTYPE svg PUBLIC "-//W3C//DTD SVG 20010904//EN"
 "http://www.w3.org/TR/2001/REC-SVG-20010904/DTD/svg10.dtd">
<svg version="1.0" xmlns="http://www.w3.org/2000/svg"
 width="16.000000pt" height="16.000000pt" viewBox="0 0 16.000000 16.000000"
 preserveAspectRatio="xMidYMid meet">
<metadata>
Created by potrace 1.11, written by Peter Selinger 2001-2013
</metadata>
<g transform="translate(0.000000,16.000000) scale(0.001758,-0.001758)"
fill="#000000" stroke="none">
<path d="M4339 9081 c-70 -22 -139 -64 -311 -187 -208 -149 -320 -193 -457
-179 -36 3 -147 24 -246 46 -234 52 -327 59 -415 29 -118 -40 -181 -103 -341
-340 -181 -269 -256 -316 -566 -355 -338 -42 -438 -80 -516 -198 -50 -75 -71
-132 -127 -350 -91 -345 -124 -387 -446 -555 -201 -104 -246 -134 -307 -202
-89 -99 -110 -214 -83 -466 41 -386 19 -458 -214 -709 -211 -226 -253 -299
-254 -435 -1 -105 10 -141 120 -372 85 -179 124 -296 124 -373 0 -68 -34 -182
-109 -361 -88 -213 -104 -276 -99 -376 8 -130 38 -178 253 -398 100 -103 195
-208 210 -234 64 -110 76 -200 62 -470 -11 -220 -2 -298 43 -392 53 -108 120
-157 391 -280 313 -143 364 -202 464 -534 81 -268 140 -368 253 -428 81 -44
155 -58 382 -76 361 -29 414 -59 641 -361 117 -156 198 -236 276 -273 52 -24
69 -27 163 -27 93 1 123 6 260 44 216 61 264 71 355 72 129 2 190 -24 448
-190 136 -88 192 -116 272 -137 143 -38 233 -4 505 191 155 111 248 159 339
175 83 15 144 8 366 -42 232 -52 319 -58 411 -30 113 35 184 104 335 328 197
291 257 328 614 374 262 34 354 63 429 136 77 74 109 147 170 386 54 211 86
293 137 359 57 71 123 117 314 216 202 105 247 135 308 203 90 100 109 209 82
475 -39 385 -19 449 225 710 199 214 243 290 244 425 1 105 -10 141 -120 372
-85 179 -124 296 -124 373 0 68 34 182 109 361 88 213 104 276 99 376 -8 129
-39 178 -254 399 -100 102 -194 207 -209 233 -64 110 -76 200 -62 470 11 220
2 298 -43 392 -53 108 -121 157 -391 280 -314 143 -362 198 -468 544 -86 278
-138 362 -261 423 -80 41 -140 52 -383 72 -347 29 -404 61 -629 360 -119 158
-198 236 -278 274 -48 23 -67 26 -160 26 -93 -1 -123 -6 -260 -44 -216 -61
-264 -71 -355 -72 -129 -2 -190 24 -448 190 -227 146 -331 176 -468 132z m616
-785 c341 -44 647 -122 935 -238 1080 -437 1898 -1350 2204 -2463 95 -348 130
-614 130 -995 1 -408 -36 -666 -151 -1060 -221 -758 -701 -1449 -1339 -1925
-535 -401 -1139 -636 -1839 -717 -163 -19 -617 -16 -781 5 -354 46 -653 122
-944 239 -1080 437 -1898 1350 -2204 2463 -285 1038 -116 2128 471 3029 341
522 784 934 1331 1235 419 231 921 386 1392 430 63 6 131 13 150 15 78 9 532
-4 645 -18z"/>
<path d="M4346 7263 c-17 -58 -446 -1798 -446 -1809 0 -11 31 -14 154 -14
l154 0 47 195 47 195 241 0 242 0 45 -195 44 -195 163 0 c90 0 163 3 163 8 0
4 -101 417 -223 917 l-223 910 -201 3 c-186 2 -202 1 -207 -15z m299 -723 c52
-243 95 -446 95 -451 0 -5 -86 -9 -201 -9 -186 0 -200 1 -195 18 6 19 196 882
196 890 0 34 26 -76 105 -448z"/>
<path d="M2825 5204 c-313 -33 -584 -105 -810 -215 -207 -100 -325 -210 -365
-338 -25 -79 -25 -103 0 -182 40 -128 158 -238 365 -338 269 -131 622 -214
920 -215 261 -2 368 48 587 271 144 146 219 203 306 233 64 21 66 21 970 17
l907 -3 140 -27 c77 -14 226 -44 330 -67 554 -121 687 -143 880 -144 101 -1
142 3 181 17 155 54 247 183 247 347 0 166 -97 300 -253 348 -41 13 -88 17
-180 16 -189 -2 -326 -24 -875 -144 -104 -23 -253 -53 -330 -67 l-140 -27
-907 -3 c-904 -4 -906 -4 -970 17 -87 30 -162 87 -306 233 -157 160 -240 217
-377 254 -51 14 -249 24 -320 17z"/>
<path d="M3780 2740 l0 -920 140 0 140 0 1 708 0 707 115 -445 c63 -245 144
-563 180 -707 l66 -263 124 0 c108 0 123 2 128 18 3 9 85 323 182 697 97 374
180 683 183 687 3 4 5 -310 3 -697 l-4 -705 156 0 156 0 0 920 0 920 -223 0
-224 0 -88 -342 c-220 -861 -254 -990 -258 -995 -3 -2 -8 4 -11 14 -8 25 -346
1315 -346 1319 0 2 -94 4 -210 4 l-210 0 0 -920z"/>
</g>
</svg>
